<svg width="1239" height="582" viewBox="0 0 1239 582" fill="none" xmlns="http://www.w3.org/2000/svg">
<path d="M122.54 464.036C93.0974 464.036 71.5337 454.498 57.849 435.422C44.5789 416.347 37.9439 391.258 37.9439 360.156V137.469C46.2377 132.078 56.6049 127.102 69.0455 122.54C81.9009 117.564 95.3782 113.417 109.478 110.1C123.992 106.367 137.884 103.879 151.154 102.635V343.362C151.154 359.12 153.849 371.146 159.24 379.439C164.631 387.733 173.754 391.88 186.61 391.88C192.415 391.88 198.843 391.051 205.893 389.392C212.942 387.318 219.992 384.208 227.042 380.061L243.214 411.785C236.165 422.152 226.212 431.275 213.357 439.154C200.916 447.034 186.817 453.047 171.059 457.193C155.301 461.755 139.128 464.036 122.54 464.036ZM204.026 238.86L0 231.396C0 221.029 1.03672 210.869 3.11016 200.916C5.59829 190.964 8.91579 184.536 13.0627 181.633L221.443 169.193C222.687 172.095 223.517 175.206 223.931 178.523C224.761 181.426 225.176 184.536 225.176 187.854C225.176 200.294 223.309 211.283 219.577 220.821C216.26 229.944 211.076 235.957 204.026 238.86Z" fill="black"/>
<path d="M243.516 456.571C243.516 430.861 246.833 416.554 253.468 413.651L288.924 396.234L282.082 406.809V230.774L288.924 240.726L253.468 228.286C250.565 227.456 248.077 223.309 246.004 215.845C244.345 208.381 243.516 198.635 243.516 186.61C269.226 182.463 289.131 179.767 303.231 178.523C317.33 176.864 328.941 176.035 338.065 176.035C357.97 176.035 371.447 179.56 378.497 186.61C385.546 193.245 389.071 206.1 389.071 225.176V240.104L380.363 230.774H393.425C401.719 211.698 412.708 196.769 426.393 185.988C440.078 174.791 454.592 169.193 469.935 169.193C489.426 169.193 504.147 173.754 514.1 182.877C524.467 191.586 529.65 204.856 529.65 222.687C529.65 236.787 524.467 248.813 514.1 258.765C503.732 268.718 491.292 273.694 476.778 273.694C472.631 264.156 467.655 257.314 461.849 253.167C456.043 249.02 448.994 246.947 440.7 246.947C432.821 246.947 423.905 249.435 413.952 254.411C404 259.387 396.121 266.437 390.315 275.56L395.292 256.277V409.297L385.339 392.502L446.298 409.297C446.298 418.42 445.261 426.506 443.188 433.556C441.529 440.606 438.419 448.278 433.857 456.571H243.516Z" fill="black"/>
<path d="M586.071 464.036C567.41 464.036 551.859 458.023 539.418 445.997C527.392 433.556 521.379 417.798 521.379 398.722C521.379 375.5 529.258 356.01 545.016 340.251C561.189 324.079 584.412 312.675 614.684 306.04L698.036 286.757L690.572 299.197V264.986C690.572 244.251 688.291 229.737 683.73 221.443C679.583 213.15 671.911 209.003 660.714 209.003C647.859 209.003 638.114 213.979 631.479 223.931C625.259 233.884 621.734 249.849 620.904 271.828C617.587 275.975 612.196 279.292 604.732 281.78C597.682 284.269 589.803 285.513 581.094 285.513C566.58 285.513 555.384 282.195 547.505 275.56C539.626 268.51 535.686 259.18 535.686 247.569C535.686 232.64 541.699 219.37 553.725 207.759C566.166 195.733 582.96 186.402 604.109 179.767C625.673 172.718 649.725 169.193 676.265 169.193C716.905 169.193 748.214 177.901 770.192 195.318C792.585 212.32 803.782 236.579 803.782 268.096V381.306C803.782 389.185 805.026 394.783 807.514 398.1C810.417 401.418 815.6 403.077 823.065 403.077C826.797 403.077 830.529 402.662 834.261 401.833C837.993 400.588 840.896 399.552 842.97 398.722L851.056 431.068C839.86 440.606 826.175 448.485 810.002 454.705C793.829 460.926 778.693 464.036 764.594 464.036C743.445 464.036 726.857 459.059 714.831 449.107C703.22 438.74 697.414 424.848 697.414 407.431H691.816C678.131 424.433 661.544 438.118 642.053 448.485C622.563 458.852 603.902 464.036 586.071 464.036ZM644.542 399.966C652.421 399.966 661.958 396.856 673.155 390.636C684.766 384.416 694.304 377.159 701.768 368.865L691.816 391.258V323.457L703.635 325.323L650.14 338.385C640.187 340.459 632.516 344.606 627.125 350.826C621.734 357.046 619.038 364.303 619.038 372.597C619.038 380.476 621.319 387.111 625.881 392.502C630.857 397.478 637.077 399.966 644.542 399.966Z" fill="black"/>
<path d="M854.419 456.571C854.419 442.887 855.248 432.727 856.907 426.092C858.566 419.042 861.054 414.895 864.371 413.651L906.048 396.234L899.205 406.809V54.7388L906.67 64.0693L864.371 52.2507C857.736 50.1772 854.419 36.2852 854.419 10.5746C872.665 7.67173 890.912 5.18359 909.158 3.11016C927.819 1.03672 947.931 0 969.495 0C998.108 0 1012.42 14.9288 1012.42 44.7863V409.919L1001.84 399.966L1038.54 409.297C1038.54 418.42 1037.5 426.506 1035.43 433.556C1033.77 440.606 1030.66 448.278 1026.1 456.571H854.419ZM1168.55 464.036C1150.3 464.036 1133.09 459.474 1116.92 450.351C1101.16 440.813 1084.36 424.64 1066.53 401.833C1049.11 379.025 1028.59 347.508 1004.95 307.284L1094.52 226.42L1087.68 239.482L1046.63 228.286C1046.63 210.869 1050.77 195.111 1059.07 181.011H1225.77C1225.77 195.94 1224.94 206.515 1223.28 212.735C1222.04 218.955 1219.55 222.687 1215.82 223.931L1136.82 251.923L1187.83 217.711L1082.7 314.748L1097.63 273.072C1110.49 291.733 1124.8 309.772 1140.55 327.189C1156.31 344.606 1172.69 360.571 1189.69 375.085C1206.7 389.185 1223.08 400.796 1238.83 409.919C1238.83 426.506 1232.2 439.776 1218.93 449.729C1206.07 459.267 1189.28 464.036 1168.55 464.036Z" fill="black"/>
<path d="M785.949 580.078H27.9922C27.9922 569.665 28.8759 559.459 30.6433 549.463C32.7642 539.466 38.0128 520.513 41.5477 517.597L800.796 510.099C801.856 513.015 802.563 516.139 802.916 519.472C803.623 522.387 803.977 525.511 803.977 528.844C803.977 541.34 802.386 552.378 799.205 561.959C796.377 571.122 791.958 577.162 785.949 580.078Z" fill="black"/>
<path d="M1132.02 539.404C1136.7 553.377 1145.17 562.444 1154.47 569.735C1163.78 577.307 1173.64 581.079 1184.06 581.049C1197.28 581.012 1207.26 577.888 1214 571.678C1221.02 565.748 1224.51 556.733 1224.48 544.631C1224.45 535.063 1220.91 526.912 1213.86 520.177C1206.8 513.443 1198.35 510.09 1188.5 510.118C1166.06 510.118 1134.43 510.12 1128.99 510.119C1123.54 510.119 1128.23 528.125 1132.02 539.404Z" fill="black"/>
<path d="M994.549 539.654C999.238 553.626 1007.7 562.693 1017.01 569.984C1026.32 577.556 1036.18 581.328 1046.59 581.298C1059.82 581.261 1069.8 578.137 1076.53 571.927C1083.55 565.997 1087.05 556.982 1087.01 544.881C1086.98 535.312 1083.44 527.161 1076.39 520.427C1069.33 513.692 1060.88 510.339 1051.03 510.367C1028.6 510.367 996.965 510.369 991.521 510.369C986.078 510.368 990.763 528.374 994.549 539.654Z" fill="black"/>
<path d="M859.257 538.099C863.946 552.071 872.408 561.138 881.716 568.429C891.024 576.001 900.884 579.773 911.297 579.743C924.524 579.706 934.506 576.582 941.242 570.372C948.261 564.442 951.753 555.427 951.719 543.326C951.692 533.757 948.152 525.606 941.097 518.872C934.042 512.137 925.59 508.784 915.74 508.812C893.306 508.812 861.673 508.814 856.229 508.814C850.786 508.813 855.471 526.819 859.257 538.099Z" fill="black"/>
</svg>
